<svg width="1440" height="464" viewBox="0 0 1440 464" fill="none" xmlns="http://www.w3.org/2000/svg">
<path d="M-1 421.51C201.703 421.51 346.472 386.633 479.333 388.758C788.74 393.705 642.639 246.682 959.667 246.682C1304.86 246.682 1222.24 117 1440 117" stroke="#5F82FF" stroke-width="3"/>
<path d="M480.333 388.758C347.472 386.633 202.703 421.51 0 421.51V464H1441V117C1223.24 117 1305.86 246.682 960.667 246.682C643.639 246.682 789.74 393.705 480.333 388.758Z" fill="url(#paint0_linear_6_26)" fill-opacity="0.4"/>
<line x1="921.5" y1="200" x2="921.5" y2="389" stroke="#D8E0F7"/>
<g filter="url(#filter0_d_6_26)">
<circle cx="921.5" cy="248.5" r="7.5" fill="white"/>
<circle cx="921.5" cy="248.5" r="6.5" stroke="#5E80FE" stroke-width="2"/>
</g>
<line x1="1329.5" x2="1329.5" y2="317" stroke="#D8E0F7"/>
<g filter="url(#filter1_d_6_26)">
<circle cx="1329.5" cy="134.5" r="7.5" fill="white"/>
<circle cx="1329.5" cy="134.5" r="6.5" stroke="#5E80FE" stroke-width="2"/>
</g>
<line x1="512.5" y1="378" x2="512.5" y2="437" stroke="#D8E0F7"/>
<line x1="104.5" y1="262" x2="104.5" y2="452" stroke="#D8E0F7"/>
<g filter="url(#filter2_d_6_26)">
<circle cx="104.5" cy="419.5" r="7.5" fill="white"/>
<circle cx="104.5" cy="419.5" r="6.5" stroke="#5E80FE" stroke-width="2"/>
</g>
<defs>
<filter id="filter0_d_6_26" x="899" y="226" width="45" height="45" filterUnits="userSpaceOnUse" color-interpolation-filters="sRGB">
<feFlood flood-opacity="0" result="BackgroundImageFix"/>
<feColorMatrix in="SourceAlpha" type="matrix" values="0 0 0 0 0 0 0 0 0 0 0 0 0 0 0 0 0 0 127 0" result="hardAlpha"/>
<feOffset/>
<feGaussianBlur stdDeviation="7.5"/>
<feColorMatrix type="matrix" values="0 0 0 0 0.323144 0 0 0 0 0.512664 0 0 0 0 1 0 0 0 0.25 0"/>
<feBlend mode="normal" in2="BackgroundImageFix" result="effect1_dropShadow_6_26"/>
<feBlend mode="normal" in="SourceGraphic" in2="effect1_dropShadow_6_26" result="shape"/>
</filter>
<filter id="filter1_d_6_26" x="1307" y="112" width="45" height="45" filterUnits="userSpaceOnUse" color-interpolation-filters="sRGB">
<feFlood flood-opacity="0" result="BackgroundImageFix"/>
<feColorMatrix in="SourceAlpha" type="matrix" values="0 0 0 0 0 0 0 0 0 0 0 0 0 0 0 0 0 0 127 0" result="hardAlpha"/>
<feOffset/>
<feGaussianBlur stdDeviation="7.5"/>
<feColorMatrix type="matrix" values="0 0 0 0 0.323144 0 0 0 0 0.512664 0 0 0 0 1 0 0 0 0.25 0"/>
<feBlend mode="normal" in2="BackgroundImageFix" result="effect1_dropShadow_6_26"/>
<feBlend mode="normal" in="SourceGraphic" in2="effect1_dropShadow_6_26" result="shape"/>
</filter>
<filter id="filter2_d_6_26" x="82" y="397" width="45" height="45" filterUnits="userSpaceOnUse" color-interpolation-filters="sRGB">
<feFlood flood-opacity="0" result="BackgroundImageFix"/>
<feColorMatrix in="SourceAlpha" type="matrix" values="0 0 0 0 0 0 0 0 0 0 0 0 0 0 0 0 0 0 127 0" result="hardAlpha"/>
<feOffset/>
<feGaussianBlur stdDeviation="7.5"/>
<feColorMatrix type="matrix" values="0 0 0 0 0.323144 0 0 0 0 0.512664 0 0 0 0 1 0 0 0 0.25 0"/>
<feBlend mode="normal" in2="BackgroundImageFix" result="effect1_dropShadow_6_26"/>
<feBlend mode="normal" in="SourceGraphic" in2="effect1_dropShadow_6_26" result="shape"/>
</filter>
<linearGradient id="paint0_linear_6_26" x1="278.466" y1="464.443" x2="278.466" y2="9.0051" gradientUnits="userSpaceOnUse">
<stop stop-color="#4B71FF" stop-opacity="0"/>
<stop offset="1" stop-color="#6B89F8"/>
</linearGradient>
</defs>
</svg>
